# xmcd
#
# Track frame offsets:
#	150
#	20376
#	37671
#	63162
#	78496
#	91203
#	109377
#	131677
#	156257
#	171866
#	203817
#	227238
#	244211
#	261859
#
# Disc length: 3765 seconds
#
# Revision: 1
# Processed by: cddbd v1.4PL0 Copyright (c) Steve Scherf et al.
# Submitted via: audiograbber 1.81.02
#
DISCID=b50eb30e
DTITLE=Various Artist - Romantic Stars CD2
DYEAR=2003
DGENRE=Ballad
TTITLE0=Lighthouse Family - Lifted
TTITLE1=Bro'Sis - Heaven Must Be Missing An Angel
TTITLE2=The Style Council - You're The Best Thing
TTITLE3=Diana Ross - Do You Know Where You're Going To
TTITLE4=Dusty Springfield - You Don't Have To Say You Love Me
TTITLE5=Cathy Dennis - Too Many Walls
TTITLE6=Sam Brown - Stop
TTITLE7=The Stylistics - You Make Me Feel Brand New
TTITLE8=Will Downing and Mica Paris - Where Is The Love
TTITLE9=The Christians - Words
TTITLE10=Spandau Ballet - I'll Fly For You
TTITLE11=10cc - I'm Not In Love
TTITLE12=Boyz II Man - I'll Make Love To You
TTITLE13=Barry White - You're The First, The Last, My Everything
EXTD=
EXTT0=
EXTT1=
EXTT2=
EXTT3=
EXTT4=
EXTT5=
EXTT6=
EXTT7=
EXTT8=
EXTT9=
EXTT10=
EXTT11=
EXTT12=
EXTT13=
PLAYORDER=
